<?xml version="1.0" standalone="no"?><!DOCTYPE svg PUBLIC "-//W3C//DTD SVG 1.1//EN" "http://www.w3.org/Graphics/SVG/1.1/DTD/svg11.dtd"><svg t="1617344132462" class="icon" viewBox="0 0 1024 1024" version="1.1" xmlns="http://www.w3.org/2000/svg" p-id="4056" xmlns:xlink="http://www.w3.org/1999/xlink" width="128" height="128"><defs><style type="text/css"></style></defs><path d="M430.528 72.96c4.416 0 8 3.648 8 8.064v96h146.944v-96c0-4.48 3.584-8 8-8h56c4.48 0 8 3.584 8 8v96h183.552c4.288 0 7.872 3.392 8 7.68V366.592h93.952c4.48 0 8 3.584 8 8v56a8 8 0 0 1-8 8h-93.952V548.48h93.952c4.48 0 8 3.584 8 8v56a8 8 0 0 1-8 8h-93.952v220.544a8 8 0 0 1-7.744 8h-183.808v93.952a8 8 0 0 1-8 8h-56a8 8 0 0 1-8-8v-93.952H438.528v93.952a8 8 0 0 1-8 8h-56a8 8 0 0 1-8-8v-93.952H184.96a8 8 0 0 1-8-7.744v-220.8h-96a8 8 0 0 1-8-8v-56c0-4.416 3.584-8 8-8h96V438.528h-96a8 8 0 0 1-8-8v-56c0-4.48 3.584-8 8-8h96V184.96c0-4.352 3.392-7.872 7.68-8H366.592v-96c0-4.48 3.584-8 8-8h56z m346.496 176H248.96v528h528V248.96z m-126.08 120.064c4.416 0 7.936 3.392 8.064 7.68v274.24a8 8 0 0 1-7.744 8.064H376.96a8 8 0 0 1-8-7.744V376.96c0-4.352 3.392-7.872 7.68-8h274.24z m-64 72h-145.92v145.92h145.92v-145.92z" fill="#5c5f66" p-id="4057"></path></svg>