<?xml version="1.0" standalone="no"?><!DOCTYPE svg PUBLIC "-//W3C//DTD SVG 1.1//EN" "http://www.w3.org/Graphics/SVG/1.1/DTD/svg11.dtd"><svg t="1617343881154" class="icon" viewBox="0 0 1024 1024" version="1.1" xmlns="http://www.w3.org/2000/svg" p-id="2085" xmlns:xlink="http://www.w3.org/1999/xlink" width="128" height="128"><defs><style type="text/css"></style></defs><path d="M938.667 42.667a42.667 42.667 0 0 1 42.666 42.666v853.334a42.667 42.667 0 0 1-42.666 42.666H85.333a42.667 42.667 0 0 1-42.666-42.666V85.333a42.667 42.667 0 0 1 42.666-42.666h853.334zM896 128H128v768h768V128z m-533.333 85.333A21.333 21.333 0 0 1 384 234.667v64h42.667a42.667 42.667 0 0 1 42.666 42.666V512a42.667 42.667 0 0 1-42.666 42.667H384v234.666a21.333 21.333 0 0 1-21.333 21.334H320a21.333 21.333 0 0 1-21.333-21.334V554.667H256A42.667 42.667 0 0 1 213.333 512V341.333A42.667 42.667 0 0 1 256 298.667h42.667v-64A21.333 21.333 0 0 1 320 213.333h42.667z m341.333 0a21.333 21.333 0 0 1 21.333 21.334v234.666H768A42.667 42.667 0 0 1 810.667 512v170.667A42.667 42.667 0 0 1 768 725.333h-42.667v64A21.333 21.333 0 0 1 704 810.667h-42.667A21.333 21.333 0 0 1 640 789.333v-64h-42.667a42.667 42.667 0 0 1-42.666-42.666V512a42.667 42.667 0 0 1 42.666-42.667H640V234.667a21.333 21.333 0 0 1 21.333-21.334H704z m21.333 341.334H640V640h85.333v-85.333zM384 384h-85.333v85.333H384V384z" p-id="2086" fill="#5c5f66"></path></svg>